<svg version="1.1" xmlns="http://www.w3.org/2000/svg" viewBox="0 0 2048 2048">

<path transform="translate(0,0)" fill="rgb(175,139,254)" d="M 1405.88 563.317 C 1403.61 533.441 1401.01 503.592 1398.06 473.775 C 1396.33 455.773 1393.47 433.915 1394.27 415.97 C 1395.81 401.682 1409.58 388.225 1424.21 388.447 C 1455.66 388.925 1458.29 414.667 1460.58 439.271 C 1464.84 484.987 1470.69 531.188 1473.82 577 C 1515.26 581.136 1556.67 585.511 1598.06 590.124 C 1604.29 590.835 1614.05 592.551 1619.92 592.481 C 1643.44 592.204 1669.79 602.567 1666.01 632.233 C 1664.94 640.927 1660.24 648.763 1653.07 653.809 C 1649.26 656.508 1642.25 659.937 1637.52 659.735 C 1592.23 657.796 1546.77 651.005 1501.52 647.128 C 1495.28 646.594 1488.24 645.913 1482.15 644.955 C 1594.33 771.989 1650.32 948.486 1640.3 1116.14 C 1621.51 1430.27 1380.75 1695.13 1070.27 1744.32 C 1052.02 1747.21 1029.08 1750.81 1010.68 1751.12 C 1008.09 1781.23 1017.66 1821.57 997.397 1842.72 C 988.073 1852.31 975.351 1857.85 961.977 1858.15 C 948.608 1858.45 935.119 1853.43 925.467 1844.08 C 909.013 1828.15 911.427 1805.94 911.702 1785.03 L 911.982 1751.12 C 888.642 1750.82 852.202 1745.12 829.271 1740.64 C 709.744 1717.33 607.284 1665.87 514.623 1587.69 C 379.034 1471.43 294.385 1306.68 278.817 1128.75 C 264.273 948.146 322.301 769.193 440.061 631.491 C 556.666 492.904 723.534 406.294 903.978 390.703 C 1090.33 375.185 1264.76 443.831 1405.88 563.317 z"/>
<path transform="translate(0,0)" fill="rgb(117,95,254)" d="M 1405.88 563.317 C 1403.61 533.441 1401.01 503.592 1398.06 473.775 C 1396.33 455.773 1393.47 433.915 1394.27 415.97 C 1395.81 401.682 1409.58 388.225 1424.21 388.447 C 1455.66 388.925 1458.29 414.667 1460.58 439.271 C 1464.84 484.987 1470.69 531.188 1473.82 577 C 1515.26 581.136 1556.67 585.511 1598.06 590.124 C 1604.29 590.835 1614.05 592.551 1619.92 592.481 C 1643.44 592.204 1669.79 602.567 1666.01 632.233 C 1664.94 640.927 1660.24 648.763 1653.07 653.809 C 1649.26 656.508 1642.25 659.937 1637.52 659.735 C 1592.23 657.796 1546.77 651.005 1501.52 647.128 C 1495.28 646.594 1488.24 645.913 1482.15 644.955 C 1594.33 771.989 1650.32 948.486 1640.3 1116.14 C 1621.51 1430.27 1380.75 1695.13 1070.27 1744.32 C 1052.02 1747.21 1029.08 1750.81 1010.68 1751.12 C 1008.09 1781.23 1017.66 1821.57 997.397 1842.72 C 988.073 1852.31 975.351 1857.85 961.977 1858.15 C 948.608 1858.45 935.119 1853.43 925.467 1844.08 C 909.013 1828.15 911.427 1805.94 911.702 1785.03 L 911.982 1751.12 L 912.048 1609.65 L 911.37 1460.35 C 912.013 1443.17 911.487 1422.94 911.468 1405.58 L 911.357 1304.08 C 892.33 1300.32 874.278 1294.1 856.873 1285.55 C 847.928 1293.02 837.839 1302.11 826.261 1304.84 C 814.385 1307.57 801.909 1305.52 791.541 1299.11 C 780.767 1292.37 773.113 1281.62 770.266 1269.24 C 766.806 1254.27 770.864 1240 778.996 1227.47 C 786.155 1220 797.958 1204.62 804.704 1196.27 L 860.527 1126.12 C 874.392 1108.78 904.737 1074.71 915.413 1057.71 C 916.331 1056.52 917.265 1055.34 918.213 1054.17 C 929.976 1039.58 939.125 1030.71 958.889 1028.59 L 959.062 844.784 L 971.531 844.744 C 1022.99 847.375 1072.27 866.364 1112.19 898.946 C 1124.71 909.146 1131.82 918.293 1141.7 926.883 C 1167.27 900.567 1193.07 874.476 1219.1 848.613 C 1224.91 842.754 1247.05 819.506 1252.09 816.611 L 1252.2 816.272 C 1256.39 813.946 1281.82 787.421 1286.59 782.576 L 1358.11 709.948 L 1358.64 710.045 C 1373.86 693.614 1390.84 677.309 1406.6 661.29 C 1422.52 645.107 1438.57 628.219 1454.85 612.474 C 1445.31 600.997 1410.4 571.164 1405.88 563.317 z"/>
<path transform="translate(0,0)" fill="rgb(5,4,252)" d="M 1405.88 563.317 C 1403.61 533.441 1401.01 503.592 1398.06 473.775 C 1396.33 455.773 1393.47 433.915 1394.27 415.97 C 1395.81 401.682 1409.58 388.225 1424.21 388.447 C 1455.66 388.925 1458.29 414.667 1460.58 439.271 C 1464.84 484.987 1470.69 531.188 1473.82 577 C 1515.26 581.136 1556.67 585.511 1598.06 590.124 C 1604.29 590.835 1614.05 592.551 1619.92 592.481 C 1643.44 592.204 1669.79 602.567 1666.01 632.233 C 1664.94 640.927 1660.24 648.763 1653.07 653.809 C 1649.26 656.508 1642.25 659.937 1637.52 659.735 C 1592.23 657.796 1546.77 651.005 1501.52 647.128 C 1495.28 646.594 1488.24 645.913 1482.15 644.955 C 1594.33 771.989 1650.32 948.486 1640.3 1116.14 C 1621.51 1430.27 1380.75 1695.13 1070.27 1744.32 C 1052.02 1747.21 1029.08 1750.81 1010.68 1751.12 C 1012.14 1707.09 1010.64 1655.62 1010.79 1610.9 C 1031.02 1608.27 1050.73 1605.73 1070.73 1601.65 C 1158.45 1581.38 1231.99 1548.99 1302.36 1491.74 C 1419.09 1396.79 1496.05 1250.39 1500.91 1099.48 C 1502.58 1058.81 1500 1018.08 1493.21 977.948 C 1476.07 882.179 1425.22 781.027 1358.64 710.045 C 1373.86 693.614 1390.84 677.309 1406.6 661.29 C 1422.52 645.107 1438.57 628.219 1454.85 612.474 C 1445.31 600.997 1410.4 571.164 1405.88 563.317 z"/>
<path transform="translate(0,0)" fill="rgb(254,99,91)" d="M 971.531 844.744 C 1022.99 847.375 1072.27 866.364 1112.19 898.946 C 1124.71 909.146 1131.82 918.293 1141.7 926.883 L 1141.95 927.574 C 1183.08 975.357 1203.42 1037.58 1198.48 1100.43 C 1195.01 1143.65 1172.52 1197.17 1142.64 1228.56 C 1168.15 1269.79 1136.83 1315.44 1089.35 1303.45 C 1078.29 1300.66 1073.39 1291.33 1065.7 1287.51 C 1047.8 1295.5 1029.99 1300.23 1011.06 1304.73 C 1011.12 1355.86 1012.15 1409.42 1011.17 1460.23 C 1010.77 1510.45 1010.64 1560.68 1010.79 1610.9 C 1010.64 1655.62 1012.14 1707.09 1010.68 1751.12 C 1008.09 1781.23 1017.66 1821.57 997.397 1842.72 C 988.073 1852.31 975.351 1857.85 961.977 1858.15 C 948.608 1858.45 935.119 1853.43 925.467 1844.08 C 909.013 1828.15 911.427 1805.94 911.702 1785.03 L 911.982 1751.12 L 912.048 1609.65 L 911.37 1460.35 C 912.013 1443.17 911.487 1422.94 911.468 1405.58 L 911.357 1304.08 C 892.33 1300.32 874.278 1294.1 856.873 1285.55 C 847.928 1293.02 837.839 1302.11 826.261 1304.84 C 814.385 1307.57 801.909 1305.52 791.541 1299.11 C 780.767 1292.37 773.113 1281.62 770.266 1269.24 C 766.806 1254.27 770.864 1240 778.996 1227.47 C 786.155 1220 797.958 1204.62 804.704 1196.27 L 860.527 1126.12 C 874.392 1108.78 904.737 1074.71 915.413 1057.71 C 916.331 1056.52 917.265 1055.34 918.213 1054.17 C 929.976 1039.58 939.125 1030.71 958.889 1028.59 L 959.062 844.784 L 971.531 844.744 z"/>
<path transform="translate(0,0)" fill="rgb(196,55,7)" d="M 1010.69 1063 C 1052.34 1019.3 1099.31 969.592 1141.95 927.574 C 1183.08 975.357 1203.42 1037.58 1198.48 1100.43 C 1195.01 1143.65 1172.52 1197.17 1142.64 1228.56 C 1099.5 1172.71 1055.51 1117.52 1010.69 1063 z"/>
<path transform="translate(0,0)" fill="rgb(196,55,7)" d="M 1011.88 1236.15 C 1018.14 1241.95 1065.08 1284.43 1065.7 1287.51 C 1047.8 1295.5 1029.99 1300.23 1011.06 1304.73 C 1010.54 1286.49 1010.61 1254.03 1011.88 1236.15 z"/>
<path transform="translate(0,0)" fill="rgb(255,170,45)" d="M 892.168 1252.43 C 898.681 1258.9 904.867 1265.63 911.5 1272.01 C 911.861 1282.9 911.148 1293.37 911.357 1304.08 C 892.33 1300.32 874.278 1294.1 856.873 1285.55 C 868.527 1274.13 880.784 1264.94 892.168 1252.43 z"/>
<path transform="translate(0,0)" fill="rgb(196,55,7)" d="M 892.168 1252.43 C 895.966 1248.6 906.59 1240.61 911.607 1236.21 C 911.58 1247.99 911.738 1260.28 911.5 1272.01 C 904.867 1265.63 898.681 1258.9 892.168 1252.43 z"/>
<path transform="translate(0,0)" fill="rgb(83,248,239)" d="M 1252.09 816.611 C 1300.78 865.755 1334.17 942.565 1346.46 1010.1 C 1350.47 1032.11 1351.61 1055.98 1351.52 1078.32 C 1351.09 1180.22 1310.44 1277.82 1238.42 1349.91 C 1190.39 1397.13 1131.1 1431.3 1066.16 1449.2 C 1055.26 1452.08 1021.74 1460.66 1011.17 1460.23 C 1012.15 1409.42 1011.12 1355.86 1011.06 1304.73 C 1029.99 1300.23 1047.8 1295.5 1065.7 1287.51 C 1073.39 1291.33 1078.29 1300.66 1089.35 1303.45 C 1136.83 1315.44 1168.15 1269.79 1142.64 1228.56 C 1172.52 1197.17 1195.01 1143.65 1198.48 1100.43 C 1203.42 1037.58 1183.08 975.357 1141.95 927.574 L 1141.7 926.883 C 1167.27 900.567 1193.07 874.476 1219.1 848.613 C 1224.91 842.754 1247.05 819.506 1252.09 816.611 z"/>
<path transform="translate(0,0)" fill="rgb(59,62,254)" d="M 1011.17 1460.23 C 1021.74 1460.66 1055.26 1452.08 1066.16 1449.2 C 1071.6 1456.77 1064.93 1595.29 1068.55 1600.65 C 1068.99 1601.32 1070 1601.32 1070.73 1601.65 C 1050.73 1605.73 1031.02 1608.27 1010.79 1610.9 C 1010.64 1560.68 1010.77 1510.45 1011.17 1460.23 z"/>
<path transform="translate(0,0)" fill="rgb(59,62,254)" d="M 911.982 1751.12 C 888.642 1750.82 852.202 1745.12 829.271 1740.64 C 709.744 1717.33 607.284 1665.87 514.623 1587.69 C 379.034 1471.43 294.385 1306.68 278.817 1128.75 C 264.273 948.146 322.301 769.193 440.061 631.491 C 556.666 492.904 723.534 406.294 903.978 390.703 C 1090.33 375.185 1264.76 443.831 1405.88 563.317 C 1410.4 571.164 1445.31 600.997 1454.85 612.474 C 1438.57 628.219 1422.52 645.107 1406.6 661.29 C 1390.84 677.309 1373.86 693.614 1358.64 710.045 L 1358.11 709.948 C 1256.37 600.545 1125.99 537.546 976.044 532.281 C 833.306 528.555 694.903 581.518 591.119 679.583 C 485.884 777.159 423.679 912.515 418.169 1055.92 C 417.274 1085.01 419.414 1110.77 423.283 1139.66 C 438.03 1254.89 489.193 1362.4 569.316 1446.51 C 659.54 1541.29 781.598 1599.39 912.048 1609.65 L 911.982 1751.12 z"/>
<path transform="translate(0,0)" fill="rgb(254,235,106)" d="M 675.257 809.227 C 683.536 797.314 702.649 782.081 714.107 772.363 C 784.547 712.622 867.563 684.912 958.868 681.463 L 959.104 843.958 C 962.556 844.088 968.329 844.124 971.531 844.744 L 959.062 844.784 L 958.889 1028.59 C 939.125 1030.71 929.976 1039.58 918.213 1054.17 C 917.265 1055.34 916.331 1056.52 915.413 1057.71 C 904.737 1074.71 874.392 1108.78 860.527 1126.12 L 804.704 1196.27 C 797.958 1204.62 786.155 1220 778.996 1227.47 C 770.864 1240 766.806 1254.27 770.266 1269.24 C 773.113 1281.62 780.767 1292.37 791.541 1299.11 C 801.909 1305.52 814.385 1307.57 826.261 1304.84 C 837.839 1302.11 847.928 1293.02 856.873 1285.55 C 874.278 1294.1 892.33 1300.32 911.357 1304.08 L 911.468 1405.58 C 911.487 1422.94 912.013 1443.17 911.37 1460.35 C 834.863 1452.5 755.842 1414.08 698.808 1363.01 C 622.579 1294.61 576.522 1198.82 570.701 1096.58 C 564.963 989.432 603.857 888.564 675.257 809.227 z"/>
<path transform="translate(0,0)" fill="rgb(83,248,239)" d="M 675.257 809.227 C 683.536 797.314 702.649 782.081 714.107 772.363 C 784.547 712.622 867.563 684.912 958.868 681.463 L 959.104 843.958 C 962.556 844.088 968.329 844.124 971.531 844.744 L 959.062 844.784 C 890.249 845.456 832.859 874.6 784.983 922.38 C 781.456 919.222 777.976 914.906 774.581 911.437 C 741.312 877.451 708.982 842.761 675.257 809.227 z"/>
<path transform="translate(0,0)" fill="rgb(255,170,45)" d="M 784.853 923.066 C 800.501 939.971 816.994 957.058 833.442 973.184 C 861.217 1000.42 887.265 1031.01 915.413 1057.71 C 904.737 1074.71 874.392 1108.78 860.527 1126.12 L 804.704 1196.27 C 797.958 1204.62 786.155 1220 778.996 1227.47 C 733.016 1177.61 718.276 1106.57 727.691 1040.8 C 734.368 994.156 755.697 958.74 784.853 923.066 z"/>
<path transform="translate(0,0)" fill="rgb(63,249,250)" d="M 958.868 681.463 C 1068.99 685.217 1164.83 722.584 1240.96 804.149 L 1252.2 816.272 L 1252.09 816.611 C 1247.05 819.506 1224.91 842.754 1219.1 848.613 C 1193.07 874.476 1167.27 900.567 1141.7 926.883 C 1131.82 918.293 1124.71 909.146 1112.19 898.946 C 1072.27 866.364 1022.99 847.375 971.531 844.744 C 968.329 844.124 962.556 844.088 959.104 843.958 L 958.868 681.463 z"/>
<path transform="translate(0,0)" fill="rgb(5,4,252)" d="M 1533.88 300.14 C 1558.96 298.702 1569.99 314.455 1572.26 337.377 C 1576.43 379.519 1580.78 421.952 1584 464.165 C 1608.53 466.872 1729.17 475.968 1743.04 483.662 C 1750.68 487.898 1756.25 495.661 1758.57 504.011 C 1760.76 511.892 1760.09 518.451 1756.18 525.525 C 1750.43 535.938 1743.97 541.737 1732.44 544.97 C 1725.2 545.206 1717.22 544.68 1710.02 543.861 C 1657.09 537.845 1603.97 533.801 1551.01 528.257 C 1538.09 526.904 1524.54 517.29 1522.54 503.853 C 1519.7 484.698 1518.14 464.694 1516.16 445.317 L 1509.31 374.481 C 1506.54 345.377 1496.02 309.038 1533.88 300.14 z"/>
<path transform="translate(0,0)" fill="rgb(5,4,252)" d="M 1647.1 194.149 C 1687.7 191.294 1683.95 234.083 1686.45 261.48 C 1689.18 291.464 1690.2 321.987 1693.8 351.842 C 1715.74 352.766 1826.6 358.657 1839.29 365.654 C 1847.11 369.967 1852.81 377.913 1855.29 386.399 C 1857.88 395.245 1856.42 403.73 1851.92 411.7 C 1846.78 420.823 1838.45 425.185 1828.79 428.063 C 1818.31 428.809 1788.19 425.787 1775.41 424.925 C 1737.07 421.925 1698.49 419.833 1660.27 415.575 C 1628.51 412.035 1630.35 384.368 1628.62 360.563 L 1624.46 303.515 C 1622.43 276.604 1618.4 249.18 1618.53 222.292 C 1618.61 206.701 1633.54 197.247 1647.1 194.149 z"/>
</svg>