<svg version="1.1" xmlns="http://www.w3.org/2000/svg" viewBox="0 0 2048 2048">

<path transform="translate(0,0)" fill="rgb(48,79,254)" d="M 467.253 605.467 C 657.139 585.286 858.526 657.248 1005.53 776.172 C 1017.78 786.143 1029.84 796.358 1041.69 806.812 C 1136.31 893.902 1227.09 1029.15 1264.28 1152.59 L 1266.34 1161.13 C 1271.16 1184.45 1275.45 1205.54 1279.42 1229.13 C 1207.37 1291.51 1152.35 1351.78 1107.1 1436.7 C 1098.11 1453.57 1083.19 1482.96 1077.26 1500.92 C 1057.02 1546.3 1042.01 1608.89 1036.58 1658.06 C 1035.44 1670.28 1034.44 1681.65 1034.99 1694.01 L 1034.24 1696.82 C 994.51 1697.96 951.873 1696.48 911.936 1696.43 L 641.995 1696.21 L 529.891 1696.25 C 501.701 1696.27 468.709 1697.83 441.271 1692.38 C 380.381 1680.29 324.013 1624.41 310.159 1564.06 C 301.76 1527.48 304.474 1479.17 304.399 1440.71 L 304.778 1276.13 C 305.12 1246.29 304.805 1215.86 304.791 1185.96 L 304.731 896.051 L 304.673 818.534 C 304.656 799.892 303.697 779.858 306.542 761.501 C 319.994 674.728 383.612 621.356 467.253 605.467 z"/>
<path transform="translate(0,0)" fill="rgb(70,28,254)" d="M 304.778 1276.13 L 415.927 1276.56 C 427.426 1276.5 465.408 1275.46 475.081 1276.81 C 644.765 1279.21 818.72 1332 941.24 1455.03 C 961.901 1475.78 988.701 1511.3 1001.48 1537.75 C 1012.57 1554.13 1026.92 1602.22 1030.13 1621.79 C 1031.39 1629.49 1033.96 1652.17 1036.58 1658.06 C 1035.44 1670.28 1034.44 1681.65 1034.99 1694.01 L 1034.24 1696.82 C 994.51 1697.96 951.873 1696.48 911.936 1696.43 L 641.995 1696.21 L 529.891 1696.25 C 501.701 1696.27 468.709 1697.83 441.271 1692.38 C 380.381 1680.29 324.013 1624.41 310.159 1564.06 C 301.76 1527.48 304.474 1479.17 304.399 1440.71 L 304.778 1276.13 z"/>
<path transform="translate(0,0)" fill="rgb(219,129,254)" d="M 475.081 1276.81 C 644.765 1279.21 818.72 1332 941.24 1455.03 C 961.901 1475.78 988.701 1511.3 1001.48 1537.75 C 987.907 1540.31 951.531 1539.98 936.255 1540.02 L 828.912 1540.15 L 656.213 1540.13 C 645.923 1540.11 635.53 1540.18 625.229 1540.08 C 573.573 1539.6 530.964 1547.01 493.032 1503.48 C 481.281 1490.14 473.044 1474.09 469.069 1456.76 C 465.873 1442.55 466.578 1388.78 466.909 1371.56 C 467.426 1344.71 465.526 1304.07 467.33 1278.14 C 469.3 1276.68 472.12 1277.03 475.081 1276.81 z"/>
<path transform="translate(0,0)" fill="rgb(70,28,254)" d="M 304.791 1185.96 L 304.731 896.051 L 304.673 818.534 C 304.656 799.892 303.697 779.858 306.542 761.501 C 319.994 674.728 383.612 621.356 467.253 605.467 L 467.594 903.058 C 467.603 952.63 466.027 1012.34 468.111 1060.94 C 474.561 1070.05 475.921 1072.15 487.381 1073.83 C 531.714 1080.31 577.255 1090.72 619.866 1104.62 C 743.721 1144.66 851.617 1223.09 927.932 1328.53 C 956.171 1368.25 983.847 1421.94 1002.08 1467.44 C 1005.64 1476.32 1011.32 1490.21 1013.41 1499.32 C 1015.91 1504.7 1018.49 1509.66 1021.23 1514.91 C 1058.86 1356.21 1136.8 1252.65 1264.28 1152.59 L 1266.34 1161.13 C 1271.16 1184.45 1275.45 1205.54 1279.42 1229.13 C 1207.37 1291.51 1152.35 1351.78 1107.1 1436.7 C 1098.11 1453.57 1083.19 1482.96 1077.26 1500.92 C 1057.02 1546.3 1042.01 1608.89 1036.58 1658.06 C 1033.96 1652.17 1031.39 1629.49 1030.13 1621.79 C 1026.92 1602.22 1012.57 1554.13 1001.48 1537.75 C 988.701 1511.3 961.901 1475.78 941.24 1455.03 C 818.72 1332 644.765 1279.21 475.081 1276.81 C 465.408 1275.46 427.426 1276.5 415.927 1276.56 L 304.778 1276.13 C 305.12 1246.29 304.805 1215.86 304.791 1185.96 z"/>
<path transform="translate(0,0)" fill="rgb(2,2,229)" d="M 1264.28 1152.59 L 1266.34 1161.13 C 1271.16 1184.45 1275.45 1205.54 1279.42 1229.13 C 1207.37 1291.51 1152.35 1351.78 1107.1 1436.7 C 1098.11 1453.57 1083.19 1482.96 1077.26 1500.92 C 1057.02 1546.3 1042.01 1608.89 1036.58 1658.06 C 1033.96 1652.17 1031.39 1629.49 1030.13 1621.79 C 1026.92 1602.22 1012.57 1554.13 1001.48 1537.75 C 988.701 1511.3 961.901 1475.78 941.24 1455.03 C 818.72 1332 644.765 1279.21 475.081 1276.81 C 465.408 1275.46 427.426 1276.5 415.927 1276.56 L 304.778 1276.13 C 305.12 1246.29 304.805 1215.86 304.791 1185.96 C 365.414 1185.99 424.232 1185.38 485.166 1194.39 C 668.503 1221.51 865.133 1296.33 980.096 1449 C 990.772 1463.18 1002.24 1487.12 1013.41 1499.32 C 1015.91 1504.7 1018.49 1509.66 1021.23 1514.91 C 1058.86 1356.21 1136.8 1252.65 1264.28 1152.59 z"/>
<path transform="translate(0,0)" fill="rgb(50,254,253)" d="M 1746.37 1049.14 L 1746.7 1240.55 C 1746.68 1286.79 1747.25 1334.85 1746.26 1380.96 L 1746.29 1475.12 C 1746.26 1493.23 1746.92 1518.93 1745.31 1536.48 C 1741.63 1576.06 1724.4 1613.15 1696.54 1641.5 C 1655.16 1683.44 1610.53 1696.79 1553.32 1696.94 L 1210.7 1696.9 L 1095.61 1696.95 C 1077.28 1696.96 1052.21 1697.73 1034.24 1696.82 L 1034.99 1694.01 C 1034.44 1681.65 1035.44 1670.28 1036.58 1658.06 C 1042.01 1608.89 1057.02 1546.3 1077.26 1500.92 C 1083.19 1482.96 1098.11 1453.57 1107.1 1436.7 C 1152.35 1351.78 1207.37 1291.51 1279.42 1229.13 C 1282.12 1227.58 1293.59 1218.09 1296.64 1215.65 C 1306.97 1207.26 1317.55 1199.19 1328.37 1191.44 C 1399.81 1137.35 1494.05 1093.48 1580.15 1069.67 L 1580.54 1069.06 C 1585.32 1068.49 1592.99 1066.53 1597.87 1065.33 C 1647.39 1053.26 1695.39 1049.09 1746.37 1049.14 z"/>
<path transform="translate(0,0)" fill="rgb(253,141,0)" d="M 1585.75 1382.97 C 1639.24 1381.21 1692.75 1380.54 1746.26 1380.96 L 1746.29 1475.12 C 1746.26 1493.23 1746.92 1518.93 1745.31 1536.48 C 1741.63 1576.06 1724.4 1613.15 1696.54 1641.5 C 1655.16 1683.44 1610.53 1696.79 1553.32 1696.94 L 1210.7 1696.9 L 1095.61 1696.95 C 1077.28 1696.96 1052.21 1697.73 1034.24 1696.82 L 1034.99 1694.01 C 1064.52 1638.35 1106.1 1580.87 1153.74 1539.24 C 1174.87 1520.8 1199.05 1501.6 1223.05 1487 C 1327.55 1423.44 1464.1 1387 1585.75 1382.97 z"/>
<path transform="translate(0,0)" fill="rgb(254,184,36)" d="M 1153.74 1539.24 C 1174.87 1520.8 1199.05 1501.6 1223.05 1487 C 1327.55 1423.44 1464.1 1387 1585.75 1382.97 C 1586.12 1431.94 1590.85 1470.27 1552.77 1508.48 C 1538.14 1523.04 1519.55 1532.97 1499.31 1537.03 C 1481.7 1540.68 1460.68 1539.93 1442.48 1539.96 L 1379.2 1540.01 L 1172.16 1540.36 C 1166.39 1540.34 1159.33 1540.44 1153.74 1539.24 z"/>
<path transform="translate(0,0)" fill="rgb(157,249,254)" d="M 1580.15 1069.67 C 1581.46 1079 1580.8 1090.46 1580.85 1099.89 C 1580.99 1131.5 1580.9 1165.99 1580.96 1197.23 C 1581.04 1232.62 1582.94 1240.59 1544.11 1244.8 C 1536.52 1245.62 1526.7 1247.87 1518.91 1248.92 C 1416.16 1268.86 1316.06 1304.7 1229 1363.64 C 1184.13 1393.98 1143.04 1429.56 1106.6 1469.64 C 1098.19 1478.97 1089.33 1490.46 1080.91 1499.82 C 1080.19 1500.62 1078.36 1500.83 1077.26 1500.92 C 1083.19 1482.96 1098.11 1453.57 1107.1 1436.7 C 1152.35 1351.78 1207.37 1291.51 1279.42 1229.13 C 1282.12 1227.58 1293.59 1218.09 1296.64 1215.65 C 1306.97 1207.26 1317.55 1199.19 1328.37 1191.44 C 1399.81 1137.35 1494.05 1093.48 1580.15 1069.67 z"/>
<path transform="translate(0,0)" fill="rgb(50,254,253)" d="M 1086.18 750.604 L 1087.72 748.818 C 1192.56 629.676 1328.27 541.801 1479.88 494.882 C 1506.91 486.797 1552.8 475.573 1580.99 473.537 C 1580.96 515.494 1578.51 568.342 1580.71 609.021 C 1633.07 615.469 1675.11 634.306 1708.54 676.826 C 1724.81 697.264 1736.27 721.1 1742.08 746.568 C 1746.95 768.736 1746.49 792.094 1746.31 814.738 C 1745.79 880.906 1747.52 947.396 1746.62 1013.53 C 1746.6 1025.24 1746.77 1037.49 1746.37 1049.14 C 1695.39 1049.09 1647.39 1053.26 1597.87 1065.33 C 1592.99 1066.53 1585.32 1068.49 1580.54 1069.06 L 1580.15 1069.67 C 1494.05 1093.48 1399.81 1137.35 1328.37 1191.44 C 1317.55 1199.19 1306.97 1207.26 1296.64 1215.65 C 1293.59 1218.09 1282.12 1227.58 1279.42 1229.13 C 1275.45 1205.54 1271.16 1184.45 1266.34 1161.13 L 1264.28 1152.59 C 1227.09 1029.15 1136.31 893.902 1041.69 806.812 C 1056.38 787.968 1071.21 769.231 1086.18 750.604 z"/>
<path transform="translate(0,0)" fill="rgb(253,141,0)" d="M 1580.71 609.021 C 1633.07 615.469 1675.11 634.306 1708.54 676.826 C 1724.81 697.264 1736.27 721.1 1742.08 746.568 C 1746.95 768.736 1746.49 792.094 1746.31 814.738 C 1745.79 880.906 1747.52 947.396 1746.62 1013.53 C 1746.6 1025.24 1746.77 1037.49 1746.37 1049.14 C 1695.39 1049.09 1647.39 1053.26 1597.87 1065.33 C 1592.99 1066.53 1585.32 1068.49 1580.54 1069.06 C 1581.7 1047.87 1580.78 1018.57 1580.72 996.9 L 1580.71 609.021 z"/>
<path transform="translate(0,0)" fill="rgb(235,94,0)" d="M 1580.72 996.9 C 1625.95 983.564 1699.36 971.807 1745.93 970.525 C 1745.88 978.621 1745.36 1007.46 1746.62 1013.53 C 1746.6 1025.24 1746.77 1037.49 1746.37 1049.14 C 1695.39 1049.09 1647.39 1053.26 1597.87 1065.33 C 1592.99 1066.53 1585.32 1068.49 1580.54 1069.06 C 1581.7 1047.87 1580.78 1018.57 1580.72 996.9 z"/>
<path transform="translate(0,0)" fill="rgb(18,246,227)" d="M 1086.18 750.604 C 1102.26 759.169 1133.88 792.379 1146.35 806.442 C 1214.75 883.592 1272.77 964.081 1302.33 1064.15 C 1308.23 1084.11 1311.67 1101.46 1316.67 1121.27 C 1382.36 1076.97 1448.14 1043.48 1522.62 1016.97 C 1540.11 1010.75 1563.01 1001.71 1580.72 996.9 C 1580.78 1018.57 1581.7 1047.87 1580.54 1069.06 L 1580.15 1069.67 C 1494.05 1093.48 1399.81 1137.35 1328.37 1191.44 C 1317.55 1199.19 1306.97 1207.26 1296.64 1215.65 C 1293.59 1218.09 1282.12 1227.58 1279.42 1229.13 C 1275.45 1205.54 1271.16 1184.45 1266.34 1161.13 L 1264.28 1152.59 C 1227.09 1029.15 1136.31 893.902 1041.69 806.812 C 1056.38 787.968 1071.21 769.231 1086.18 750.604 z"/>
<path transform="translate(0,0)" fill="rgb(2,220,189)" d="M 1266.34 1161.13 C 1282.62 1147.07 1299.51 1133.73 1316.96 1121.14 C 1321.29 1144.7 1324.13 1168.32 1328.37 1191.44 C 1317.55 1199.19 1306.97 1207.26 1296.64 1215.65 C 1293.59 1218.09 1282.12 1227.58 1279.42 1229.13 C 1275.45 1205.54 1271.16 1184.45 1266.34 1161.13 z"/>
<path transform="translate(0,0)" fill="rgb(254,97,84)" d="M 856.471 301.293 C 899.81 235.256 977.4 200.202 1055.6 211.328 C 1133.8 222.454 1198.54 277.757 1221.74 353.261 C 1244.94 428.764 1222.43 510.876 1163.97 563.997 C 1088 633.036 972.536 634.804 894.483 568.122 C 816.43 501.44 800.144 387.118 856.471 301.293 z"/>
<path transform="translate(0,0)" fill="rgb(198,45,47)" d="M 856.471 301.293 C 860.901 305.444 865.523 311.376 869.378 316.249 C 882.334 332.628 896.371 347.801 910.306 363.325 C 920.03 343.007 938.7 316.998 959.239 306.777 C 950.387 396.115 991.02 472.492 1081.19 499.901 C 1091.56 503.052 1102.94 503.135 1113.41 505.787 C 1109.21 509.424 1105.29 512.89 1100.81 516.206 C 1119.91 535.912 1140.17 550.424 1163.97 563.997 C 1088 633.036 972.536 634.804 894.483 568.122 C 816.43 501.44 800.144 387.118 856.471 301.293 z"/>
<path transform="translate(0,0)" fill="rgb(253,141,0)" d="M 959.239 306.777 C 950.387 396.115 991.02 472.492 1081.19 499.901 C 1091.56 503.052 1102.94 503.135 1113.41 505.787 C 1109.21 509.424 1105.29 512.89 1100.81 516.206 C 1096.39 519.142 1091.81 521.835 1087.1 524.272 C 1056.23 539.929 1020.41 542.698 987.498 531.973 C 955.22 521.594 928.491 498.635 913.361 468.293 C 895.31 431.637 897.521 400.526 910.306 363.325 C 920.03 343.007 938.7 316.998 959.239 306.777 z"/>
<path transform="translate(0,0)" fill="rgb(254,184,36)" d="M 959.239 306.777 C 987.051 288.558 1022.77 282.858 1055.19 289.481 C 1088.18 296.331 1117.06 316.097 1135.38 344.372 C 1153.81 372.102 1160.36 406.056 1153.58 438.652 C 1148.33 464.225 1133.61 489.198 1113.41 505.787 C 1102.94 503.135 1091.56 503.052 1081.19 499.901 C 991.02 472.492 950.387 396.115 959.239 306.777 z"/>
<path transform="translate(0,0)" fill="rgb(254,97,84)" d="M 610.401 248.661 C 640.884 277.707 669.932 308.048 700.569 336.956 C 712.975 348.663 725.214 362.277 737.792 373.658 L 754.098 389.303 L 662.422 480.535 C 649.182 493.701 622.234 519.039 611.015 532.154 C 599.821 518.854 580.788 501.066 567.979 488.499 C 588.149 469.095 612.913 444.919 631.414 424.045 L 391.071 423.347 C 369.994 423.278 348.83 424.064 327.778 424.007 C 322.678 423.993 308.195 424.014 303.719 423.282 C 302.184 410.144 303.126 373.264 303.172 357.763 C 366.221 357.102 429.272 356.816 492.324 356.905 C 537.476 356.838 584.149 356.268 629.195 357.092 C 609.588 336.472 583.21 314.148 565.316 294.066 C 578.506 280.716 598.328 262.193 610.401 248.661 z"/>
<path transform="translate(0,0)" fill="rgb(198,45,47)" d="M 303.719 423.282 C 305.09 411.196 303.982 378.297 303.901 364.754 C 308.196 373.872 313.888 384.695 319.614 392.801 C 328.982 405.077 336.058 412.03 346.521 423.047 C 335.385 423.163 313.674 422.049 303.719 423.282 z"/>
</svg>